<svg width="29" height="28" viewBox="0 0 29 28" fill="none" xmlns="http://www.w3.org/2000/svg">
<path d="M17.1699 21.3227C16.0654 21.3227 15.1699 22.2759 15.1699 23.4517C15.1699 24.6275 16.0654 25.5807 17.1699 25.5807C18.2745 25.5807 19.1699 24.6275 19.1699 23.4517C19.1699 22.2759 18.2745 21.3227 17.1699 21.3227ZM17.1699 21.3227H9.46387C9.00281 21.3227 8.77185 21.3227 8.58203 21.2353C8.41458 21.1583 8.2693 21.0343 8.16346 20.8761C8.04482 20.6989 7.99711 20.4618 7.90267 19.9926L5.44141 7.76567C5.34476 7.28556 5.29579 7.04577 5.17578 6.86645C5.06994 6.70829 4.92469 6.58381 4.75724 6.50678C4.56738 6.41943 4.33771 6.41943 3.87646 6.41943H3.16992M6.16992 9.61298H19.0431C19.7649 9.61298 20.1255 9.61298 20.3677 9.77304C20.5799 9.91324 20.7352 10.1331 20.803 10.389C20.8803 10.6812 20.781 11.05 20.5809 11.7883L19.1963 16.898C19.0767 17.3393 19.0169 17.5596 18.8955 17.7234C18.7884 17.868 18.6471 17.9811 18.487 18.0506C18.306 18.1291 18.091 18.1291 17.662 18.1291H7.90039M8.16992 25.5807C7.06535 25.5807 6.16992 24.6275 6.16992 23.4517C6.16992 22.2759 7.06535 21.3227 8.16992 21.3227C9.27449 21.3227 10.1699 22.2759 10.1699 23.4517C10.1699 24.6275 9.27449 25.5807 8.16992 25.5807Z" stroke="#111111" stroke-width="1.5" stroke-linecap="round" stroke-linejoin="round"/>
<rect x="13" width="16" height="17" rx="8" fill="#EF4934"/>
<path d="M20.512 12V5.6L21.212 6.3H19.112V5H22.132V12H20.512Z" fill="#111111"/>
</svg>
